<svg width="16" height="16" viewBox="0 0 16 16" fill="none" xmlns="http://www.w3.org/2000/svg">
<path d="M4.14991 3.20722C4.02418 3.08578 3.85577 3.01859 3.68098 3.02011C3.50618 3.02162 3.33897 3.09174 3.21536 3.21534C3.09176 3.33895 3.02165 3.50616 3.02013 3.68095C3.01861 3.85575 3.0858 4.02415 3.20724 4.14989L7.05724 7.99989L3.20658 11.8499C3.1429 11.9114 3.09212 11.985 3.05718 12.0663C3.02224 12.1476 3.00385 12.2351 3.00308 12.3236C3.00231 12.4121 3.01918 12.4999 3.0527 12.5819C3.08622 12.6638 3.13572 12.7382 3.19831 12.8008C3.26091 12.8634 3.33534 12.9129 3.41727 12.9464C3.49921 12.98 3.58699 12.9968 3.67551 12.9961C3.76403 12.9953 3.85151 12.9769 3.93285 12.942C4.01418 12.907 4.08775 12.8562 4.14924 12.7926L7.99991 8.94256L11.8499 12.7926C11.9756 12.914 12.144 12.9812 12.3188 12.9797C12.4936 12.9782 12.6609 12.908 12.7845 12.7844C12.9081 12.6608 12.9782 12.4936 12.9797 12.3188C12.9812 12.144 12.914 11.9756 12.7926 11.8499L8.94258 7.99989L12.7926 4.14989C12.914 4.02415 12.9812 3.85575 12.9797 3.68095C12.9782 3.50616 12.9081 3.33895 12.7845 3.21534C12.6609 3.09174 12.4936 3.02162 12.3188 3.02011C12.144 3.01859 11.9756 3.08578 11.8499 3.20722L7.99991 7.05722L4.14991 3.20656V3.20722Z" fill="#FBFBFF" fill-opacity="0.5"/>
</svg>
