<svg width="18" height="19" viewBox="0 0 18 19" fill="none" xmlns="http://www.w3.org/2000/svg">
<g clip-path="url(#clip0_160_408)">
<path d="M15.2377 3.75619C14.0902 3.23869 12.8602 2.85619 11.574 2.63869C11.5625 2.63649 11.5507 2.63791 11.5401 2.64274C11.5295 2.64758 11.5206 2.6556 11.5147 2.66569C11.3572 2.94244 11.1817 3.30319 11.0587 3.58819C9.69457 3.38436 8.30767 3.38436 6.94349 3.58819C6.8065 3.27233 6.65201 2.96436 6.48074 2.66569C6.47494 2.65547 6.46616 2.64727 6.45557 2.64218C6.44498 2.63709 6.4331 2.63535 6.42149 2.63719C5.13599 2.85469 3.90599 3.23719 2.75774 3.75544C2.74787 3.75958 2.73949 3.76665 2.73374 3.77569C0.399744 7.20694 -0.240006 10.5534 0.0742443 13.8579C0.0751187 13.866 0.0776309 13.8739 0.081628 13.881C0.085625 13.888 0.0910233 13.8942 0.0974943 13.8992C1.45979 14.891 2.97925 15.6466 4.59224 16.1342C4.60349 16.1376 4.61552 16.1376 4.62675 16.1342C4.63799 16.1307 4.64792 16.1239 4.65524 16.1147C5.00174 15.6497 5.31074 15.1584 5.57474 14.6424C5.59049 14.6124 5.57549 14.5764 5.54399 14.5644C5.0595 14.382 4.59006 14.1618 4.13999 13.9059C4.13191 13.9013 4.12509 13.8948 4.12016 13.8869C4.11523 13.879 4.11234 13.87 4.11174 13.8607C4.11115 13.8514 4.11287 13.8421 4.11675 13.8336C4.12064 13.8252 4.12656 13.8178 4.13399 13.8122C4.22849 13.7424 4.32299 13.6697 4.41299 13.5969C4.4211 13.5904 4.43085 13.5862 4.44118 13.5849C4.45151 13.5836 4.462 13.5852 4.47149 13.5894C7.41674 14.9124 10.6065 14.9124 13.5172 13.5894C13.5268 13.5849 13.5374 13.5831 13.5478 13.5843C13.5583 13.5855 13.5682 13.5896 13.5765 13.5962C13.6665 13.6697 13.7602 13.7424 13.8555 13.8122C13.863 13.8177 13.869 13.8249 13.873 13.8333C13.877 13.8417 13.8789 13.851 13.8785 13.8603C13.878 13.8696 13.8753 13.8786 13.8705 13.8866C13.8657 13.8945 13.859 13.9012 13.851 13.9059C13.4025 14.1639 12.936 14.3822 12.4462 14.5637C12.4387 14.5664 12.4319 14.5707 12.4261 14.5763C12.4204 14.5819 12.416 14.5886 12.413 14.5961C12.4101 14.6036 12.4088 14.6115 12.4093 14.6195C12.4097 14.6275 12.4118 14.6353 12.4155 14.6424C12.6855 15.1577 12.9945 15.6482 13.3342 16.1139C13.3413 16.1235 13.3511 16.1306 13.3624 16.1344C13.3737 16.1382 13.3859 16.1383 13.3972 16.1349C15.013 15.6487 16.5349 14.8928 17.8987 13.8992C17.9054 13.8945 17.911 13.8885 17.9151 13.8815C17.9193 13.8745 17.9219 13.8668 17.9227 13.8587C18.2977 10.0382 17.2942 6.71869 15.261 3.77719C15.256 3.76763 15.2478 3.76018 15.2377 3.75619ZM6.01499 11.8457C5.12849 11.8457 4.39724 11.0439 4.39724 10.0607C4.39724 9.07669 5.11424 8.27569 6.01499 8.27569C6.92249 8.27569 7.64699 9.08344 7.63274 10.0607C7.63274 11.0447 6.91574 11.8457 6.01499 11.8457ZM11.9962 11.8457C11.109 11.8457 10.3785 11.0439 10.3785 10.0607C10.3785 9.07669 11.0947 8.27569 11.9962 8.27569C12.9037 8.27569 13.6282 9.08344 13.614 10.0607C13.614 11.0447 12.9045 11.8457 11.9962 11.8457Z" fill="#FBFBFF" fill-opacity="0.8"/>
</g>
<defs>
<clipPath id="clip0_160_408">
<rect width="18" height="18" fill="white" transform="translate(0 0.387207)"/>
</clipPath>
</defs>
</svg>
