<svg width="18" height="19" viewBox="0 0 18 19" fill="none" xmlns="http://www.w3.org/2000/svg">
<path d="M17.7323 4.08989C17.106 4.36739 16.4333 4.55489 15.726 4.63964C16.4558 4.20299 17.0017 3.51574 17.262 2.70614C16.5764 3.11338 15.826 3.40004 15.0435 3.55364C14.5173 2.99179 13.8203 2.61939 13.0608 2.49425C12.3012 2.36911 11.5216 2.49824 10.8429 2.86158C10.1643 3.22493 9.62459 3.80216 9.30762 4.50367C8.99066 5.20518 8.91416 5.99171 9.09001 6.74114C7.70077 6.67139 6.34173 6.3103 5.10108 5.68132C3.86042 5.05234 2.76589 4.16951 1.88851 3.09014C1.58851 3.60764 1.41601 4.20764 1.41601 4.84664C1.41567 5.42189 1.55733 5.98832 1.82842 6.49569C2.0995 7.00306 2.49163 7.43567 2.97001 7.75514C2.41522 7.73749 1.87266 7.58758 1.38751 7.31789V7.36289C1.38745 8.1697 1.66653 8.95168 2.1774 9.57614C2.68826 10.2006 3.39944 10.6291 4.19026 10.7889C3.6756 10.9282 3.13601 10.9487 2.61226 10.8489C2.83538 11.5431 3.27001 12.1502 3.85528 12.5851C4.44056 13.02 5.1472 13.261 5.87626 13.2744C4.63863 14.246 3.11017 14.773 1.53676 14.7706C1.25804 14.7707 0.979566 14.7544 0.702759 14.7219C2.29987 15.7488 4.15901 16.2938 6.05776 16.2916C12.4853 16.2916 15.999 10.9681 15.999 6.35114C15.999 6.20114 15.9953 6.04964 15.9885 5.89964C16.672 5.40537 17.2619 4.79331 17.7308 4.09214L17.7323 4.08989Z" fill="#FBFBFF" fill-opacity="0.8"/>
</svg>
